<?xml version="1.0" standalone="no"?>
<!DOCTYPE svg PUBLIC "-//W3C//DTD SVG 20010904//EN"
 "http://www.w3.org/TR/2001/REC-SVG-20010904/DTD/svg10.dtd">
<svg version="1.0" xmlns="http://www.w3.org/2000/svg"
 width="1200.000000pt" height="1200.000000pt" viewBox="0 0 1200.000000 1200.000000"
 preserveAspectRatio="xMidYMid meet">
<metadata>
Created by potrace 1.14, written by Peter Selinger 2001-2017
</metadata>
<g transform="translate(0.000000,1200.000000) scale(0.100000,-0.100000)"
fill="#000000" stroke="none">
<path d="M5097 9833 c-4 -3 -7 -62 -7 -130 l0 -123 910 0 911 0 -3 128 -3 127
-901 3 c-495 1 -904 -1 -907 -5z"/>
<path d="M3677 9102 l-247 -247 90 -90 90 -90 250 250 250 250 -87 87 c-48 49
-90 88 -93 88 -3 0 -117 -111 -253 -248z"/>
<path d="M7977 9262 l-87 -87 638 -638 c350 -350 642 -637 647 -637 6 0 49 38
95 85 l85 85 -640 640 c-352 352 -642 640 -645 640 -3 0 -45 -39 -93 -88z"/>
<path d="M5090 9205 l0 -125 910 0 910 0 0 125 0 125 -910 0 -910 0 0 -125z"/>
<path d="M3637 8352 l-637 -637 90 -90 90 -90 642 643 643 642 -85 85 c-46 47
-89 85 -95 85 -5 0 -297 -287 -648 -638z"/>
<path d="M7620 8905 l-85 -85 643 -642 642 -643 85 85 c47 46 85 89 85 95 0
13 -1262 1275 -1275 1275 -6 0 -49 -38 -95 -85z"/>
<path d="M5092 8703 l3 -128 905 0 905 0 3 128 3 127 -911 0 -911 0 3 -127z"/>
<path d="M4002 7997 l-642 -642 88 -88 87 -87 643 643 642 642 -88 88 -87 87
-643 -643z"/>
<path d="M7267 8552 l-87 -87 241 -248 c132 -136 246 -247 253 -247 6 0 50 38
96 85 l85 85 -250 250 -250 250 -88 -88z"/>
<path d="M2895 8320 l-250 -250 85 -85 c46 -47 89 -85 95 -85 6 0 120 110 255
245 l245 245 -90 90 -90 90 -250 -250z"/>
<path d="M8050 7765 l-84 -84 199 -203 c109 -112 220 -225 247 -253 l48 -50
90 90 90 90 -247 247 c-136 137 -250 248 -253 248 -3 0 -43 -38 -90 -85z"/>
<path d="M2165 6898 c-3 -7 -4 -416 -3 -908 l3 -895 125 0 125 0 0 905 0 905
-123 3 c-92 2 -124 -1 -127 -10z"/>
<path d="M2670 6555 l0 -355 125 0 125 0 0 355 0 355 -125 0 -125 0 0 -355z"/>
<path d="M3170 6000 l0 -911 128 3 127 3 0 905 0 905 -127 3 -128 3 0 -911z"/>
<path d="M8575 6898 c-3 -7 -4 -166 -3 -353 l3 -340 125 0 125 0 0 350 0 350
-123 3 c-93 2 -124 -1 -127 -10z"/>
<path d="M9080 6000 l0 -910 125 0 125 0 0 910 0 910 -125 0 -125 0 0 -910z"/>
<path d="M9585 6898 c-3 -7 -4 -166 -3 -353 l3 -340 125 0 125 0 0 350 0 350
-123 3 c-93 2 -124 -1 -127 -10z"/>
<path d="M2670 5445 l0 -355 125 0 125 0 0 355 0 355 -125 0 -125 0 0 -355z"/>
<path d="M8575 5788 c-3 -7 -4 -166 -3 -353 l3 -340 125 0 125 0 0 350 0 350
-123 3 c-93 2 -124 -1 -127 -10z"/>
<path d="M9585 5788 c-3 -7 -4 -166 -3 -353 l3 -340 125 0 125 0 0 350 0 350
-123 3 c-93 2 -124 -1 -127 -10z"/>
<path d="M3447 4732 l-87 -87 643 -643 642 -642 88 88 87 87 -643 643 -642
642 -88 -88z"/>
<path d="M8215 4570 l-250 -250 88 -87 87 -88 250 250 250 250 -88 88 -87 87
-250 -250z"/>
<path d="M3087 4372 l-87 -87 250 -250 250 -250 90 90 90 90 -247 247 c-136
137 -250 248 -253 248 -3 0 -45 -39 -93 -88z"/>
<path d="M8567 4212 l-247 -247 90 -90 90 -90 245 245 c135 135 245 249 245
255 0 10 -161 175 -170 175 -3 0 -117 -111 -253 -248z"/>
<path d="M2730 4015 l-85 -85 250 -250 250 -250 90 90 90 90 -245 245 c-135
135 -249 245 -255 245 -6 0 -49 -38 -95 -85z"/>
<path d="M8527 3462 l-637 -637 90 -90 90 -90 642 643 643 642 -85 85 c-46 47
-89 85 -95 85 -5 0 -297 -287 -648 -638z"/>
<path d="M7421 3783 l-240 -248 87 -88 87 -87 250 250 250 250 -85 85 c-46 47
-90 85 -96 85 -7 0 -121 -111 -253 -247z"/>
<path d="M3875 3590 l-90 -90 245 -245 c135 -135 249 -245 255 -245 6 0 49 38
95 85 l85 85 -250 250 -250 250 -90 -90z"/>
<path d="M7785 3430 l-250 -250 85 -85 c46 -47 89 -85 95 -85 6 0 120 110 255
245 l245 245 -90 90 -90 90 -250 -250z"/>
<path d="M5097 3423 c-4 -3 -7 -62 -7 -130 l0 -123 355 0 356 0 -3 128 -3 127
-346 3 c-190 1 -348 -1 -352 -5z"/>
<path d="M6207 3423 c-4 -3 -7 -62 -7 -130 l0 -123 355 0 356 0 -3 128 -3 127
-346 3 c-190 1 -348 -1 -352 -5z"/>
<path d="M3517 3232 l-87 -87 250 -250 250 -250 85 85 c47 46 85 89 85 95 0
10 -480 495 -490 495 -3 0 -45 -39 -93 -88z"/>
<path d="M5090 2795 l0 -125 355 0 355 0 0 125 0 125 -355 0 -355 0 0 -125z"/>
<path d="M6200 2795 l0 -125 355 0 355 0 0 125 0 125 -355 0 -355 0 0 -125z"/>
<path d="M5092 2293 l3 -128 350 0 350 0 3 128 3 127 -356 0 -356 0 3 -127z"/>
<path d="M6202 2293 l3 -128 350 0 350 0 3 128 3 127 -356 0 -356 0 3 -127z"/>
</g>
</svg>
